<svg width="32" height="32" viewBox="0 0 512 512" fill="none" xmlns="http://www.w3.org/2000/svg">
  <defs>
    <style>
      .main-green { stroke: #00A86B; fill: #00A86B; }
      .stroke-green { stroke: #00A86B; }
      .fill-green { fill: #00A86B; }
      .fill-white { fill: #FFFFFF; }
    </style>
  </defs>

  <circle cx="256" cy="256" r="230" stroke="#00A86B" stroke-width="18" fill="none" />
  <circle cx="256" cy="256" r="200" stroke="#00A86B" stroke-width="12" fill="none" />

  <g transform="translate(0, 30)">
    <path d="M186 280 V 360 C 186 390, 200 405, 256 405 C 312 405, 326 390, 326 360 V 280" 
          fill="#F5F5F5" stroke="#00A86B" stroke-width="16" stroke-linecap="round" stroke-linejoin="round"/>
    
    <rect x="176" y="255" width="160" height="35" rx="10" 
          fill="#FFFFFF" stroke="#00A86B" stroke-width="16" stroke-linejoin="round"/>
  </g>

  <path d="M430 140 C 400 120, 350 110, 310 140 C 280 160, 290 190, 290 200 C 290 200, 320 180, 350 190 C 370 196, 365 215, 360 220 L 460 220 L 460 160 Z" 
        fill="#00A86B" stroke="none" />
  
  <path d="M480 120 L 360 90 C 320 80, 280 130, 275 160 C 270 180, 290 190, 310 185" 
        stroke="#00A86B" stroke-width="35" stroke-linecap="round" fill="none" />
  <path d="M310 185 C 330 180, 350 200, 340 220" 
        stroke="#00A86B" stroke-width="30" stroke-linecap="round" fill="none" />

  <circle cx="256" cy="225" r="38" fill="#FFFFFF" stroke="#00A86B" stroke-width="8" />

  <g transform="translate(240, 208)">
    <rect x="10" y="0" width="5" height="34" rx="2" fill="#00A86B" />
    <path d="M12 0 H 20 C 28 0, 32 5, 32 12 C 32 19, 28 23, 20 23 H 12" 
          stroke="#00A86B" stroke-width="5" fill="none" stroke-linecap="round" />
    <rect x="6" y="10" width="18" height="4" rx="1" fill="#FFFFFF" />
    <rect x="6" y="16" width="18" height="4" rx="1" fill="#FFFFFF" />
     <path d="M8 12 H 24 M 8 17 H 24" stroke="#00A86B" stroke-width="3" stroke-linecap="round" />
  </g>
</svg>